<svg xmlns="http://www.w3.org/2000/svg" width="29.25" height="27.001" viewBox="0 0 29.25 27.001">
  <g id="Group_177" data-name="Group 177" transform="translate(-1608.059 -1186.165)">
    <path id="Path_135" data-name="Path 135" d="M1633.09,1192.916h-20.812a4.222,4.222,0,0,0-4.219,4.219v11.812a4.221,4.221,0,0,0,4.219,4.219h20.812a4.222,4.222,0,0,0,4.219-4.219v-11.812A4.223,4.223,0,0,0,1633.09,1192.916Zm-2.677,10.27a1.04,1.04,0,0,1-1.04,1.04h-4.681v4.681a1.04,1.04,0,0,1-1.04,1.04h-1.039a1.04,1.04,0,0,1-1.04-1.04v-4.681h-4.681a1.04,1.04,0,0,1-1.04-1.04v-1.04h0a1.04,1.04,0,0,1,1.04-1.04h4.682v-4.681a1.04,1.04,0,0,1,1.04-1.04h1.04a1.04,1.04,0,0,1,1.04,1.04v4.681h4.681a1.04,1.04,0,0,1,1.038,1.041Z" fill="#fff"/>
    <path id="Path_136" data-name="Path 136" d="M1632.809,1191.229v-1.442a4.034,4.034,0,0,0-.977-2.644,3.325,3.325,0,0,0-3.038-.907l-16.516,3.23c-1.266.279-3.094,1.552-3.094,3.1a4.433,4.433,0,0,1,3.445-1.337Z" fill="#fff"/>
  </g>
</svg>
