<svg id="Group_43" data-name="Group 43" xmlns="http://www.w3.org/2000/svg" width="29.928" height="25" viewBox="0 0 29.928 25">
  <path id="Path_73" data-name="Path 73" d="M311.869,419.283a7.6,7.6,0,0,0-6.677-3.96h-.474A11.276,11.276,0,0,0,283.24,422.1a11.285,11.285,0,0,0,2.445,4.589,1.469,1.469,0,0,0,2.209-1.938,8.356,8.356,0,0,1-1.808-3.392,8.335,8.335,0,0,1,16.133-4.2,1.47,1.47,0,0,0,1.423,1.1h1.549a4.662,4.662,0,0,1,4.094,2.427,4.641,4.641,0,0,1-1.868,6.3,1.468,1.468,0,0,0,1.406,2.577,7.57,7.57,0,0,0,3.046-10.283Z" transform="translate(-282.869 -408.009)" fill="#2c2c58"/>
  <path id="Path_74" data-name="Path 74" d="M299.186,419.683a1.507,1.507,0,0,0-.74-.4l-.023-.007a1.493,1.493,0,0,0-.3-.031h0a1.414,1.414,0,0,0-.2.02c-.032,0-.064,0-.1.01a1.5,1.5,0,0,0-.788.431l-4.978,4.979a1.5,1.5,0,0,0,2.121,2.121l2.436-2.436V432a1.5,1.5,0,0,0,3,0v-7.638l2.442,2.443a1.5,1.5,0,0,0,2.122-2.121Z" transform="translate(-283.162 -408.499)" fill="#2c2c58"/>
</svg>
