<svg xmlns="http://www.w3.org/2000/svg" width="28.642" height="25.062" viewBox="0 0 28.642 25.062">
  <path id="Icon_awesome-gift" data-name="Icon awesome-gift" d="M1.79,25.522a1.788,1.788,0,0,0,1.79,1.79h8.951V18.361H1.79Zm14.321,1.79h8.951a1.788,1.788,0,0,0,1.79-1.79V18.361H16.111Zm10.741-17.9H24.5a4.878,4.878,0,0,0,.565-2.238A4.93,4.93,0,0,0,20.139,2.25c-2.327,0-3.832,1.192-5.762,3.821C12.447,3.442,10.942,2.25,8.615,2.25A4.93,4.93,0,0,0,3.692,7.173a4.809,4.809,0,0,0,.565,2.238H1.79A1.788,1.788,0,0,0,0,11.2v4.475a.9.9,0,0,0,.9.9H27.747a.9.9,0,0,0,.9-.9V11.2A1.788,1.788,0,0,0,26.852,9.411Zm-18.243,0a2.238,2.238,0,0,1,0-4.475c1.113,0,1.936.185,4.817,4.475H8.609Zm11.53,0H15.322C18.2,5.131,19,4.935,20.139,4.935a2.238,2.238,0,1,1,0,4.475Z" transform="translate(0 -2.25)" fill="#ff7f00"/>
</svg>
