<svg xmlns="http://www.w3.org/2000/svg" width="30.536" height="23.75" viewBox="0 0 30.536 23.75">
  <path id="Icon_awesome-credit-card" data-name="Icon awesome-credit-card" d="M0,23.455A2.545,2.545,0,0,0,2.545,26H27.991a2.545,2.545,0,0,0,2.545-2.545v-9.33H0Zm10.179-3.6a.638.638,0,0,1,.636-.636h7.21a.638.638,0,0,1,.636.636v2.121a.638.638,0,0,1-.636.636h-7.21a.638.638,0,0,1-.636-.636Zm-6.786,0a.638.638,0,0,1,.636-.636H7.846a.638.638,0,0,1,.636.636v2.121a.638.638,0,0,1-.636.636H4.029a.638.638,0,0,1-.636-.636ZM30.536,4.795V7.339H0V4.795A2.545,2.545,0,0,1,2.545,2.25H27.991A2.545,2.545,0,0,1,30.536,4.795Z" transform="translate(0 -2.25)" fill="#2c2c58"/>
</svg>
