<svg xmlns="http://www.w3.org/2000/svg" width="88" height="88" viewBox="0 0 88 88">
  <g id="Mask" transform="translate(4 4)" fill="#fff" stroke-miterlimit="10">
    <path d="M 40 82 C 34.33091735839844 82 28.83035278320312 80.88924407958984 23.65109443664551 78.6986083984375 C 18.64951705932617 76.5831298828125 14.15808200836182 73.55504608154297 10.30151748657227 69.69847869873047 C 6.444952964782715 65.8419189453125 3.416870594024658 61.35048294067383 1.301388263702393 56.34890747070312 C -0.8892470598220825 51.16964721679688 -2 45.66908264160156 -2 40 C -2 34.33091735839844 -0.8892470598220825 28.83035278320312 1.301388263702393 23.65109443664551 C 3.416870594024658 18.64951705932617 6.444952964782715 14.15808200836182 10.30151748657227 10.30151748657227 C 14.15808200836182 6.444952964782715 18.64951705932617 3.416870594024658 23.65109443664551 1.301388263702393 C 28.83035278320312 -0.8892470598220825 34.33091735839844 -2 40 -2 C 45.66908264160156 -2 51.16964721679688 -0.8892470598220825 56.34890747070312 1.301388263702393 C 61.35048294067383 3.416870594024658 65.8419189453125 6.444952964782715 69.69847869873047 10.30151748657227 C 73.55504608154297 14.15808200836182 76.5831298828125 18.64951705932617 78.6986083984375 23.65109443664551 C 80.88924407958984 28.83035278320312 82 34.33091735839844 82 40 C 82 45.66908264160156 80.88924407958984 51.16964721679688 78.6986083984375 56.34890747070312 C 76.5831298828125 61.35048294067383 73.55504608154297 65.8419189453125 69.69847869873047 69.69847869873047 C 65.8419189453125 73.55504608154297 61.35048294067383 76.5831298828125 56.34890747070312 78.6986083984375 C 51.16964721679688 80.88924407958984 45.66908264160156 82 40 82 Z" stroke="none"/>
    <path d="M 40 0 C 17.90859985351562 0 0 17.90859985351562 0 40 C 0 62.09137725830078 17.90859985351562 80 40 80 C 62.09137725830078 80 80 62.09137725830078 80 40 C 80 17.90859985351562 62.09137725830078 0 40 0 M 40 -4 C 45.93820190429688 -4 51.70089721679688 -2.836097717285156 57.12799835205078 -0.540618896484375 C 62.36798095703125 1.675697326660156 67.07309722900391 4.847702026367188 71.11270141601562 8.887298583984375 C 75.15228271484375 12.9268798828125 78.32430267333984 17.63201904296875 80.54061889648438 22.87197875976562 C 82.83609771728516 28.29909896850586 84 34.06179809570312 84 40 C 84 45.93820190429688 82.83609771728516 51.70089721679688 80.54061889648438 57.12799835205078 C 78.32430267333984 62.36798095703125 75.15228271484375 67.07309722900391 71.11270141601562 71.11270141601562 C 67.07309722900391 75.15228271484375 62.36798095703125 78.32430267333984 57.12799835205078 80.54061889648438 C 51.70089721679688 82.83609771728516 45.93820190429688 84 40 84 C 34.06179809570312 84 28.29909896850586 82.83609771728516 22.87197875976562 80.54061889648438 C 17.63201904296875 78.32430267333984 12.9268798828125 75.15228271484375 8.887298583984375 71.11270141601562 C 4.847702026367188 67.07309722900391 1.675697326660156 62.36798095703125 -0.540618896484375 57.12799835205078 C -2.836097717285156 51.70089721679688 -4 45.93820190429688 -4 40 C -4 34.06179809570312 -2.836097717285156 28.29909896850586 -0.540618896484375 22.87197875976562 C 1.675697326660156 17.63201904296875 4.847702026367188 12.9268798828125 8.887298583984375 8.887298583984375 C 12.9268798828125 4.847702026367188 17.63201904296875 1.675697326660156 22.87197875976562 -0.540618896484375 C 28.29909896850586 -2.836097717285156 34.06179809570312 -4 40 -4 Z" stroke="none" fill="#e81894"/>
  </g>
</svg>
