<svg xmlns="http://www.w3.org/2000/svg" width="24.74" height="23.248" viewBox="0 0 24.74 23.248">
  <path id="Icon_awesome-gift" data-name="Icon awesome-gift" d="M18.72,16.224a1.247,1.247,0,0,1-1.248,1.248h-6.24v-6.24H18.72ZM8.736,17.472H2.5a1.247,1.247,0,0,1-1.248-1.248V11.232H8.736ZM1.248,4.992H2.89A3.4,3.4,0,0,1,2.5,3.432,3.437,3.437,0,0,1,5.928,0C7.551,0,8.6.831,9.945,2.664,11.291.831,12.34,0,13.962,0a3.437,3.437,0,0,1,3.432,3.432A3.353,3.353,0,0,1,17,4.992h1.72A1.247,1.247,0,0,1,19.968,6.24V9.36a.626.626,0,0,1-.624.624H.624A.626.626,0,0,1,0,9.36V6.24A1.247,1.247,0,0,1,1.248,4.992Zm12.718,0a1.56,1.56,0,1,0,0-3.12c-.776,0-1.349.129-3.358,3.12Zm-8.038,0H9.286c-2-2.984-2.562-3.12-3.358-3.12a1.56,1.56,0,1,0,0,3.12Z" transform="matrix(0.94, 0.342, -0.342, 0.94, 5.976, 0)" fill="#e50695"/>
</svg>
