<svg id="Component_12_3" data-name="Component 12 – 3" xmlns="http://www.w3.org/2000/svg" width="126.004" height="54.374" viewBox="0 0 126.004 54.374">
  <path id="Path_81" data-name="Path 81" d="M155.98,253.12c.189-.168.386-.327.587-.477q-.319.192-.621.412Z" transform="translate(-124.456 -225.28)" fill="#515187"/>
  <path id="Path_82" data-name="Path 82" d="M227.328,239.177a3.374,3.374,0,0,1,3.148,1.941c7.083-.337,12.781-6.678,14.98-13.127,1.042-3.071,2.054-6.876.918-10.058-.81-2.266-2.551-5.015-5.369-4.886l-77.121,3.819a13.438,13.438,0,0,0-5.687,1.614,3.324,3.324,0,0,1,1.5,3.465l.031.012-.328.943-5.336,15.294.033.07.543,1.106c.2-.18.416-.348.634-.507q.3-.22.621-.412a8.4,8.4,0,0,1,3.886-1.179c.119-.006.239-.018.359-.019Z" transform="translate(-123.78 -211.088)" fill="#ff7f00"/>
  <path id="Path_83" data-name="Path 83" d="M252.763,214.8c-.873-2.251-2.706-4.971-5.6-4.792l-79.189,5.166a10.529,10.529,0,0,0-4.015,1.259,13.257,13.257,0,0,1,3.472-.656l77.121-3.819c2.818-.129,4.559,2.62,5.369,4.886,1.136,3.182.124,6.987-.918,10.058-2.2,6.449-7.9,12.79-14.98,13.127a3.373,3.373,0,0,0-2.174-1.825,3.367,3.367,0,0,1,2.167,1.822c1.17,2.341.521,6.194-.145,8.148-1.164,3.414-4.521,8.753-8.329,10.418,3.414-.248,9.153-5.151,11.108-10.9.623-1.829,1.231-5.32.348-7.679,7.708-1.264,12.941-8.957,14.991-15.139C253.009,221.78,253.984,217.958,252.763,214.8Z" transform="translate(-127.328 -209.996)" fill="#2c2c58"/>
  <path id="Path_84" data-name="Path 84" d="M228.688,262.786c.666-1.954,1.315-5.808.145-8.148a3.37,3.37,0,0,0-3.148-1.939l-67.192-1.925a8.4,8.4,0,0,0-5.5,2.117l1.312,2.674a1.813,1.813,0,0,1,.089,1.395l-4.9,14.616a4.1,4.1,0,0,0,1.261.219l67.192,1.925a5.647,5.647,0,0,0,2.413-.516C224.167,271.539,227.524,266.2,228.688,262.786Z" transform="translate(-122.143 -224.611)" fill="#f5bd00"/>
  <g id="Group_6" data-name="Group 6" transform="matrix(0.999, 0.035, -0.035, 0.999, 41.135, 6.515)">
    <path id="Path_33" data-name="Path 33" d="M.368,1.481A5.012,5.012,0,0,1,4.089.017,3.483,3.483,0,0,1,6.71.847a3.572,3.572,0,0,1,1.021,2.59l.2,5.187-2.387.092-.027-.775a2.435,2.435,0,0,1-.909.645A3.552,3.552,0,0,1,3.244,8.9a3.284,3.284,0,0,1-2.3-.679,2.6,2.6,0,0,1-.935-2A2.344,2.344,0,0,1,1.038,4.073a5.068,5.068,0,0,1,2.75-.815,4.64,4.64,0,0,1,1.555.153,1.1,1.1,0,0,0-.366-.919,1.616,1.616,0,0,0-1.066-.244,3.672,3.672,0,0,0-1.186.219,4.915,4.915,0,0,0-1.154.7ZM4.745,6.506a1.705,1.705,0,0,0,.693-.722l-.014-.4a3.72,3.72,0,0,0-1.309-.164q-1.66.065-1.631.9a.619.619,0,0,0,.327.532,1.554,1.554,0,0,0,.855.162A2.2,2.2,0,0,0,4.753,6.5Z" transform="translate(0 5.91)" fill="#fff"/>
    <path id="Path_34" data-name="Path 34" d="M0,.092,2.388,0l.468,12.019L.468,12.11Z" transform="translate(8.902 2.368)" fill="#fff"/>
    <path id="Path_35" data-name="Path 35" d="M0,2.148l1.63-.063L1.553.092,3.94,0l.078,1.993,2.618-.1.087,2.223-2.618.1L4.212,7a2.275,2.275,0,0,0,.242,1.1.725.725,0,0,0,.687.3,2.343,2.343,0,0,0,1.444-.619L7.64,9.432A3.545,3.545,0,0,1,5,10.626a3.162,3.162,0,0,1-2.236-.662A2.825,2.825,0,0,1,1.852,7.8L1.717,4.3.086,4.369Z" transform="translate(12.25 3.643)" fill="#fff"/>
    <path id="Path_36" data-name="Path 36" d="M8.438,7.024A4.473,4.473,0,0,1,4.816,8.88,4.672,4.672,0,0,1,1.408,7.8,4.253,4.253,0,0,1,.013,4.63,4.5,4.5,0,0,1,1.055,1.388,4.269,4.269,0,0,1,4.288.011,4.1,4.1,0,0,1,7.262.985a3.731,3.731,0,0,1,1.265,2.8,9.21,9.21,0,0,1-.08,1.388l-5.9.229q.382,1.321,2.21,1.25A3.338,3.338,0,0,0,6,6.361a2.367,2.367,0,0,0,.941-.73ZM2.522,3.344,6.03,3.207A1.528,1.528,0,0,0,4.29,2.154,1.754,1.754,0,0,0,2.522,3.346Z" transform="translate(19.642 5.146)" fill="#fff"/>
    <path id="Path_37" data-name="Path 37" d="M0,.319,2.388.227,2.4.571A1.244,1.244,0,0,1,2.922.2,2.086,2.086,0,0,1,3.7.009a2.362,2.362,0,0,1,1.01.134,1.944,1.944,0,0,1,.7.542L4.257,2.642a.788.788,0,0,0-.787-.316q-.755.031-.969.926l.216,5.533L.328,8.878Z" transform="translate(29.093 4.818)" fill="#fff"/>
    <path id="Path_38" data-name="Path 38" d="M0,.369,2.389.277l.021.61A2.929,2.929,0,0,1,4.718.021,3.22,3.22,0,0,1,7.283.872a4.371,4.371,0,0,1,.963,2.94L8.43,8.618,6.042,8.71,5.86,4.05A2.029,2.029,0,0,0,5.4,2.643a1.709,1.709,0,0,0-1.3-.369,1.658,1.658,0,0,0-1.6,1.2l.208,5.368L.323,8.935Z" transform="translate(35.055 4.537)" fill="#fff"/>
    <path id="Path_39" data-name="Path 39" d="M.368,1.481A5.01,5.01,0,0,1,4.089.017,3.485,3.485,0,0,1,6.71.847a3.574,3.574,0,0,1,1.021,2.59l.2,5.191L5.546,8.72l-.027-.775a2.445,2.445,0,0,1-.909.645,3.546,3.546,0,0,1-1.365.318,3.287,3.287,0,0,1-2.3-.679,2.594,2.594,0,0,1-.935-2,2.339,2.339,0,0,1,1.03-2.154,5.067,5.067,0,0,1,2.749-.816,4.672,4.672,0,0,1,1.555.153A1.107,1.107,0,0,0,4.977,2.5a1.626,1.626,0,0,0-1.065-.244,3.707,3.707,0,0,0-1.186.219,4.875,4.875,0,0,0-1.156.694ZM4.746,6.509a1.715,1.715,0,0,0,.69-.719L5.423,5.4a3.708,3.708,0,0,0-1.309-.164q-1.659.065-1.631.9a.619.619,0,0,0,.327.532,1.559,1.559,0,0,0,.855.162,2.211,2.211,0,0,0,1.087-.321Z" transform="translate(44.28 4.19)" fill="#fff"/>
    <path id="Path_40" data-name="Path 40" d="M0,2.149l1.63-.063L1.553.092,3.941,0l.077,1.992,2.617-.1.087,2.223-2.618.1L4.212,7a2.268,2.268,0,0,0,.242,1.1.724.724,0,0,0,.688.3,2.34,2.34,0,0,0,1.443-.618L7.637,9.433A3.542,3.542,0,0,1,5,10.623,3.148,3.148,0,0,1,2.76,9.962,2.827,2.827,0,0,1,1.85,7.8L1.716,4.3.088,4.367Z" transform="translate(52.661 2.075)" fill="#fff"/>
    <path id="Path_41" data-name="Path 41" d="M.347.382A1.408,1.408,0,0,1,1.305,0a1.386,1.386,0,0,1,.967.3,1.091,1.091,0,0,1,.414.837,1.133,1.133,0,0,1-.346.887,1.362,1.362,0,0,1-.942.383,1.389,1.389,0,0,1-1-.3A1.153,1.153,0,0,1,0,1.247,1.088,1.088,0,0,1,.347.382ZM.238,3.511l2.388-.092.333,8.562-2.386.092Z" transform="translate(60.574 0.395)" fill="#fff"/>
    <path id="Path_42" data-name="Path 42" d="M0,3.773l1.186-.046-.006-.16A3.454,3.454,0,0,1,1.952.947,3.1,3.1,0,0,1,4.16.018a2.721,2.721,0,0,1,2.36.914l-1.258,1.6a1.089,1.089,0,0,0-.869-.3q-.89.036-.846,1.237l.006.164,2.154-.082L5.8,5.777l-2.141.082L3.9,12.2l-2.388.092L1.269,5.952.083,6Z" transform="translate(64.17 0)" fill="#fff"/>
  </g>
  <path id="Path_43" data-name="Path 43" d="M143.238,258.04l-1-2.04-3.529,10.33a.8.8,0,0,1-1.019.5l-3.8-1.3-.782,2.28-1.521-.52,3.377-9.881a1.607,1.607,0,0,0-3.041-1.039h0l-2.338,6.841a.841.841,0,0,1-.153.263l-2.4,2.794a.8.8,0,0,0-.193.565l.16,3.134,10.887,3.721Z" transform="translate(-114.024 -226.227)" fill="none"/>
  <path id="Path_44" data-name="Path 44" d="M125.97,219.792l18.829,6.54-8.268,24.042-18.825-6.538Z" transform="translate(-110.751 -213.507)" fill="#2c2c58"/>
  <path id="Path_45" data-name="Path 45" d="M134.525,214.568l14.48,5.031a2.3,2.3,0,0,1,1.417,2.926h0l-.252.724-18.826-6.543.252-.724a2.3,2.3,0,0,1,2.927-1.417h0Z" transform="translate(-115.639 -211.587)" fill="#2c2c58"/>
  <path id="Path_46" data-name="Path 46" d="M132.625,267.293l-14.481-5.031a2.3,2.3,0,0,1-1.417-2.927l.252-.724,18.822,6.544-.253.726A2.3,2.3,0,0,1,132.625,267.293Z" transform="translate(-110.354 -227.419)" fill="#2c2c58"/>
  <path id="Icon_awesome-qrcode" data-name="Icon awesome-qrcode" d="M131.761,236.975l3.92,1.347,1.347-3.92-3.92-1.347Zm2.207-2.163,1.306.449-.449,1.307-1.306-.449Zm4.369.043-1.347,3.92,3.92,1.347,1.347-3.92Zm1.714,3.513-1.307-.449.449-1.306,1.307.449ZM129.962,242.2l3.92,1.347,1.347-3.92-3.92-1.347Zm2.206-2.164,1.307.449-.449,1.306-1.307-.449Zm7.635,1.168.653.225-.9,2.613-1.96-.675.225-.653-.653-.225-.675,1.959L135.188,244l1.347-3.92,1.96.675-.225.653,1.307.449Zm-1.126,3.266.654.225-.225.653-.654-.225Zm-1.306-.449.653.225-.225.653-.653-.225Z" transform="translate(-115.143 -218.26)" fill="#fff"/>
  <g id="Group_107" data-name="Group 107" transform="translate(38.206 30.247)">
    <path id="Path_52" data-name="Path 52" d="M166.854,262.676A4.617,4.617,0,0,1,170.2,261.4a4.683,4.683,0,0,1,3.38,1.238,4.557,4.557,0,0,1,.037,6.41,5.082,5.082,0,0,1-6.7.038,4.221,4.221,0,0,1-1.344-3.184A4.285,4.285,0,0,1,166.854,262.676Zm.714-4.228a1.345,1.345,0,0,1,.909-.337,1.4,1.4,0,0,1,.9.328,1.026,1.026,0,0,1,.411.826,1.066,1.066,0,0,1-.393.864,1.436,1.436,0,0,1-1.823.019,1.088,1.088,0,0,1-.384-.868,1.054,1.054,0,0,1,.375-.832Zm1.1,9.018a2.216,2.216,0,1,0-.009-3.229,2.182,2.182,0,0,0-.6,1.644,2.208,2.208,0,0,0,.606,1.585Zm2.286-9.04a1.428,1.428,0,0,1,.942-.337,1.374,1.374,0,0,1,.923.327,1.04,1.04,0,0,1,.395.826,1.073,1.073,0,0,1-.376.871,1.377,1.377,0,0,1-.926.329,1.438,1.438,0,0,1-.957-.318,1.076,1.076,0,0,1-.4-.867,1.04,1.04,0,0,1,.4-.834Z" transform="translate(-165.571 -258.019)" fill="#fff"/>
    <path id="Path_53" data-name="Path 53" d="M187.415,269.408a2.441,2.441,0,0,1-.844.568,3.253,3.253,0,0,1-1.324.255,3.9,3.9,0,0,1-2.946-1.141,5.081,5.081,0,0,1,.069-6.492,3.977,3.977,0,0,1,2.974-1.292,3.84,3.84,0,0,1,2.023.4L187.347,258l2.4-.014.07,12.089-2.4.015Zm-.688-1.7a1.594,1.594,0,0,0,.675-.733l-.017-2.783a1.817,1.817,0,0,0-1.51-.653,2.272,2.272,0,0,0-1.594.6,2.133,2.133,0,0,0-.627,1.651,2.227,2.227,0,0,0,.589,1.619,2,2,0,0,0,1.51.591,1.9,1.9,0,0,0,.974-.291Z" transform="translate(-171.159 -257.981)" fill="#fff"/>
    <path id="Path_54" data-name="Path 54" d="M204.677,270.243a4.5,4.5,0,0,1-3.7,1.744,4.689,4.689,0,0,1-3.386-1.2,4.276,4.276,0,0,1-1.293-3.231,4.523,4.523,0,0,1,1.158-3.218,4.291,4.291,0,0,1,3.288-1.279,4.127,4.127,0,0,1,2.955,1.077A3.751,3.751,0,0,1,204.875,267a9.383,9.383,0,0,1-.123,1.393l-5.93.034q.34,1.34,2.178,1.328a3.325,3.325,0,0,0,1.257-.255,2.386,2.386,0,0,0,.975-.7Zm-5.82-3.891,3.531-.021a1.536,1.536,0,0,0-1.714-1.116,1.766,1.766,0,0,0-1.816,1.134Z" transform="translate(-176.582 -259.799)" fill="#fff"/>
    <path id="Path_55" data-name="Path 55" d="M223.642,271.714l-2.4.014-.029-5.051q-.007-1.489-1.118-1.483a1.512,1.512,0,0,0-1.419,1.052l.035,5.5-2.4.014-.032-5.45a1.149,1.149,0,0,0-.269-.793.946.946,0,0,0-.747-.293,1.521,1.521,0,0,0-1.519,1.065l.035,5.483-2.4.013-.05-8.61,2.4-.016,0,.578a2.666,2.666,0,0,1,2.067-.759,2.932,2.932,0,0,1,2.225.914,3.078,3.078,0,0,1,.989-.717,3.285,3.285,0,0,1,1.257-.222,3.561,3.561,0,0,1,2.472.763,2.9,2.9,0,0,1,.875,2.262Z" transform="translate(-181.968 -259.759)" fill="#fff"/>
    <path id="Path_56" data-name="Path 56" d="M240.411,270.032a4.5,4.5,0,0,1-3.7,1.745,4.691,4.691,0,0,1-3.385-1.2,4.274,4.274,0,0,1-1.293-3.231,4.521,4.521,0,0,1,1.158-3.22,4.293,4.293,0,0,1,3.288-1.279,4.129,4.129,0,0,1,2.955,1.077,3.754,3.754,0,0,1,1.175,2.862,9.477,9.477,0,0,1-.124,1.392l-5.93.034q.342,1.34,2.178,1.329a3.316,3.316,0,0,0,1.257-.255,2.38,2.38,0,0,0,.975-.7Zm-5.821-3.891,3.53-.021A1.54,1.54,0,0,0,236.407,265a1.766,1.766,0,0,0-1.816,1.136Z" transform="translate(-189.389 -259.723)" fill="#fff"/>
  </g>
  <g id="Group_9" data-name="Group 9" transform="translate(0 10.46)">
    <path id="Path_57" data-name="Path 57" d="M114.26,234.674l-6.469-2.1a.716.716,0,0,0-.443,1.362l6.469,2.1a.716.716,0,0,0,.443-1.361Z" transform="translate(-106.866 -228.536)" fill="#515187"/>
    <path id="Path_58" data-name="Path 58" d="M118.743,227.331l-3.064-1a.717.717,0,0,0-.488,1.347l.021.007.023.008,3.064,1a.716.716,0,0,0,.443-1.362Z" transform="translate(-109.686 -226.299)" fill="#515187"/>
    <path id="Path_59" data-name="Path 59" d="M113.547,243.242l-3.064-.994a.717.717,0,0,0-.521,1.335l.033.012h0l.021.007.023.008,3.064,1a.717.717,0,0,0,.513-1.338l-.024-.009-.022-.008Z" transform="translate(-107.815 -231.999)" fill="#515187"/>
  </g>
  <path id="Path_47" data-name="Path 47" d="M135.765,279.147l1.558-4.56a.8.8,0,0,0-.5-1.02h0l-.76-.257,5.454-15.962a.8.8,0,0,0-.039-.613l-1.854-3.777-1.745.171-3.78,11.025-3.041-1.039,2.078-6.08a3.213,3.213,0,1,0-6.061-2.138h0c-.007.02-.013.039-.02.059l-2.078,6.081-.882,1.4-1.628,1.893a2.409,2.409,0,0,0-.577,1.694l.128,2.494-1.918-.656a.8.8,0,0,0-1.02.5h0l-1.56,4.555a.8.8,0,0,0,.5,1.02h0l16.722,5.717a.8.8,0,0,0,1.02-.5h0Zm-12.27-13.217a.8.8,0,0,1,.192-.565l2.4-2.794a.811.811,0,0,0,.153-.264l2.337-6.841a1.607,1.607,0,1,1,3.041,1.039l-3.378,9.881,1.521.52.779-2.28,3.8,1.3a.8.8,0,0,0,1.02-.5l3.529-10.326,1,2.04-5.348,15.645-10.886-3.721Zm-4.194,6.737,1.039-3.041,15.2,5.2-1.039,3.041Z" transform="translate(-110.669 -225.319)" fill="#2c2c58"/>
  <rect id="Rectangle_2" data-name="Rectangle 2" width="3.212" height="16.059" transform="translate(8.644 47.386) rotate(-71.148)" fill="rgba(81,81,135,0.4)"/>
  <path id="Path_60" data-name="Path 60" d="M143.23,258.046l-1-2.04-3.529,10.33a.8.8,0,0,1-1.018.5h0l-3.8-1.3-.779,2.28-1.52-.52,3.377-9.881a1.607,1.607,0,1,0-3.041-1.039h0l-2.338,6.841a.8.8,0,0,1-.153.264l-2.4,2.793a.8.8,0,0,0-.192.565l.16,3.135,10.887,3.721Z" transform="translate(-114.023 -226.229)" fill="#ffcfa0"/>
  <g id="Group_92-2" data-name="Group 92-2" transform="translate(90.968 34.15)">
    <path id="Path_81-2" data-name="Path 81" d="M249.349,263.221a2.84,2.84,0,1,0,2.84,2.841h0A2.842,2.842,0,0,0,249.349,263.221Zm0,5.325a2.484,2.484,0,0,1-2.388-1.834.755.755,0,0,0,.337.072.721.721,0,0,0,.364-.1.645.645,0,0,0,.257-.277l-.283-.167a.334.334,0,0,1-.3.182.4.4,0,0,1-.286-.1.342.342,0,0,1-.11-.257.2.2,0,0,1,0-.048.334.334,0,0,1,.353-.313h0a.382.382,0,0,1,.321.172l.287-.187a.538.538,0,0,0-.233-.25.778.778,0,0,0-.4-.094.7.7,0,0,0-.314.067,2.48,2.48,0,1,1,2.39,3.13Z" transform="translate(-246.508 -263.221)" fill="#fff"/>
    <path id="Path_82-2" data-name="Path 82" d="M248.892,266.739a.686.686,0,0,0-.209.513.676.676,0,0,0,.215.51.815.815,0,0,0,1.074,0,.728.728,0,0,0,0-1.027A.82.82,0,0,0,248.892,266.739Zm.541.871a.336.336,0,0,1-.257-.1h0a.4.4,0,0,1,0-.519.342.342,0,0,1,.25-.1h0a.358.358,0,1,1,.03.715h-.024Z" transform="translate(-247.287 -264.409)" fill="#fff"/>
    <path id="Path_83-2" data-name="Path 83" d="M253.028,266.653a.573.573,0,0,0-.4-.124.511.511,0,0,0-.2.035.493.493,0,0,0-.159.114.466.466,0,0,0-.358-.147.424.424,0,0,0-.335.121v-.093h-.385v1.381h.385v-.883a.242.242,0,0,1,.244-.17.149.149,0,0,1,.12.048.177.177,0,0,1,.043.128v.876h.385v-.882a.242.242,0,0,1,.229-.168q.178,0,.178.238v.811h.385v-.922A.465.465,0,0,0,253.028,266.653Z" transform="translate(-248.187 -264.406)" fill="#fff"/>
  </g>
</svg>
